HIERARCHY
ROOT joint_Root
{
	OFFSET 0.0 0.0 0.0
	CHANNELS 6 Xposition Yposition Zposition Zrotation Xrotation Yrotation 
	JOINT Hips
	{
		OFFSET 4.5925 91.4895 -427.239
		CHANNELS 6 Xposition Yposition Zposition Zrotation Xrotation Yrotation 
		JOINT Spine
		{
			OFFSET 15.7357 0.0 0.0
			CHANNELS 6 Xposition Yposition Zposition Zrotation Xrotation Yrotation 
			JOINT Chest
			{
				OFFSET 8.98455 -0.406207 0.0
				CHANNELS 6 Xposition Yposition Zposition Zrotation Xrotation Yrotation 
				JOINT Neck
				{
					OFFSET 16.3773 0.0 0.0
					CHANNELS 6 Xposition Yposition Zposition Zrotation Xrotation Yrotation 
					JOINT Head
					{
						OFFSET 6.45672 0.0 0.0
						CHANNELS 6 Xposition Yposition Zposition Zrotation Xrotation Yrotation 
						End Site
						{
							OFFSET 0.0 0.0 0.0
						}
					}
				}
				JOINT Shoulder_L
				{
					OFFSET 12.9942 -0.242716 4.98039
					CHANNELS 6 Xposition Yposition Zposition Zrotation Xrotation Yrotation 
					JOINT UpperArm_L
					{
						OFFSET 5.34809 0.0 0.0
						CHANNELS 6 Xposition Yposition Zposition Zrotation Xrotation Yrotation 
						JOINT LowerArm_L
						{
							OFFSET 24.3286 1.87007e-05 0.0
							CHANNELS 6 Xposition Yposition Zposition Zrotation Xrotation Yrotation 
							JOINT Hand_L
							{
								OFFSET 22.2916 0.0 0.0
								CHANNELS 6 Xposition Yposition Zposition Zrotation Xrotation Yrotation 
								End Site
								{
									OFFSET 0.0 0.0 0.0
								}
							}
						}
					}
				}
				JOINT Shoulder_R
				{
					OFFSET 12.9945 -0.242716 -4.98039
					CHANNELS 6 Xposition Yposition Zposition Zrotation Xrotation Yrotation 
					JOINT UpperArm_R
					{
						OFFSET -5.34813 0.0 0.0
						CHANNELS 6 Xposition Yposition Zposition Zrotation Xrotation Yrotation 
						JOINT LowerArm_R
						{
							OFFSET -24.3289 0.000322201 0.0
							CHANNELS 6 Xposition Yposition Zposition Zrotation Xrotation Yrotation 
							JOINT Hand_R
							{
								OFFSET -22.2915 -0.000108084 0.0
								CHANNELS 6 Xposition Yposition Zposition Zrotation Xrotation Yrotation 
								End Site
								{
									OFFSET 0.0 0.0 0.0
								}
							}
						}
					}
				}
			}
		}
		JOINT UpperLeg_L
		{
			OFFSET -2.19248 -6.46944 0.0
			CHANNELS 6 Xposition Yposition Zposition Zrotation Xrotation Yrotation 
			JOINT LowerLeg_L
			{
				OFFSET 39.0811 0.0 -1.23785e-05
				CHANNELS 6 Xposition Yposition Zposition Zrotation Xrotation Yrotation 
				JOINT Foot_L
				{
					OFFSET 40.9854 0.0 -1.26872e-05
					CHANNELS 6 Xposition Yposition Zposition Zrotation Xrotation Yrotation 
					JOINT Toes_L
					{
						OFFSET 11.7543 0.0 0.0
						CHANNELS 6 Xposition Yposition Zposition Zrotation Xrotation Yrotation 
						End Site
						{
							OFFSET 0.0 0.0 0.0
						}
					}
				}
			}
		}
		JOINT UpperLeg_R
		{
			OFFSET -2.19251 6.46944 0.0
			CHANNELS 6 Xposition Yposition Zposition Zrotation Xrotation Yrotation 
			JOINT LowerLeg_R
			{
				OFFSET -39.0811 -0.00228153 -0.0401928
				CHANNELS 6 Xposition Yposition Zposition Zrotation Xrotation Yrotation 
				JOINT Foot_R
				{
					OFFSET -40.9854 0.0 0.0
					CHANNELS 6 Xposition Yposition Zposition Zrotation Xrotation Yrotation 
					JOINT Toes_R
					{
						OFFSET -11.7543 0.0 0.0
						CHANNELS 6 Xposition Yposition Zposition Zrotation Xrotation Yrotation 
						End Site
						{
							OFFSET 0.0 0.0 0.0
						}
					}
				}
			}
		}
	}
}
MOTION
Frames:	8
Frame Time:	0.0333333
0.000000 0.000000 0.000000 0.000000 0.000000 -0.000000 -6.647490 90.471600 -1.197910 84.479700 -0.701092 7.498530 15.735700 0.000005 -0.000001 73.966600 84.304400 -79.352500 8.984550 -0.406207 -0.000000 3.071030 -2.923170 -10.683100 16.377300 -0.000001 -0.000001 3.621000 -0.128822 -2.041170 6.456720 -0.000001 -0.000000 -2.202210 0.725765 2.754320 12.994200 -0.242716 4.980390 -91.303800 3.554450 -69.842300 5.348090 -0.000007 -0.000001 -60.958900 3.218910 -4.116120 24.328600 0.000019 0.000005 8.288990 15.623200 -28.411900 22.291600 -0.000001 0.000005 13.696100 5.226080 2.057530 12.994500 -0.242716 -4.980390 91.308600 -4.972950 -75.241100 -5.348130 -0.000001 -0.000004 -29.209100 -55.551800 -42.060000 -24.328900 0.000322 -0.000009 -15.113800 -31.926700 -27.055600 -22.291500 -0.000108 -0.000004 23.782300 5.332310 -0.865565 -2.192480 -6.469440 -0.000000 -164.905000 -11.669300 -4.420670 39.081100 -0.000007 -0.000012 -0.222877 0.342139 33.081500 40.985400 -0.000006 -0.000013 -3.874640 9.273920 -69.970200 11.754300 -0.000000 0.000003 -0.000190 -0.001774 -16.644600 -2.192510 6.469440 -0.000001 -176.234000 23.248600 178.918000 -39.081100 -0.002282 -0.040193 0.016931 -0.024659 28.924300 -40.985400 0.000008 0.000006 9.685600 10.946000 -71.719000 -11.754300 -0.000006 -0.000006 -0.000917 -0.014228 -17.151800
0.000000 0.000000 0.000000 0.000000 0.000000 -0.000000 -6.678200 90.399900 -1.319840 84.560100 -0.446317 7.833840 15.735700 0.000005 -0.000001 75.137600 84.182200 -80.813800 8.984550 -0.406207 -0.000000 3.371960 -2.764400 -11.259700 16.377300 -0.000001 -0.000001 3.134500 0.687450 -3.456890 6.456720 -0.000001 -0.000000 -2.500300 0.935767 2.316000 12.994200 -0.242716 4.980390 -91.299100 3.512990 -69.691700 5.348090 -0.000007 -0.000001 -61.240400 3.802480 -4.247890 24.328600 0.000019 0.000005 7.854410 15.076000 -27.940100 22.291600 -0.000001 0.000005 14.499400 5.235620 1.809750 12.994500 -0.242716 -4.980390 90.593300 -2.333060 -75.725000 -5.348130 -0.000001 -0.000004 -35.673700 -53.675900 -40.370300 -24.328900 0.000322 -0.000009 -14.890300 -35.673300 -24.509000 -22.291500 -0.000108 -0.000004 23.245700 5.131140 4.411790 -2.192480 -6.469440 -0.000000 -164.916000 -11.531500 -4.426230 39.081100 -0.000007 -0.000012 -0.225722 0.342024 33.423600 40.985400 -0.000006 -0.000013 -3.829020 9.435650 -70.017600 11.754300 -0.000000 0.000003 -0.000225 -0.002041 -16.654300 -2.192510 6.469440 -0.000001 -176.436000 23.529300 179.054000 -39.081100 -0.002282 -0.040193 0.017166 -0.024736 29.266500 -40.985400 0.000008 0.000006 9.856170 10.887900 -72.036000 -11.754300 -0.000006 -0.000006 -0.000889 -0.013816 -17.135100
0.000000 0.000000 0.000000 0.000000 0.000000 -0.000000 -6.642200 90.339200 -1.434350 84.558700 0.038897 7.884780 15.735700 0.000005 -0.000001 74.838500 84.064000 -80.549300 8.984550 -0.406207 -0.000000 3.577930 -2.893410 -11.319900 16.377300 -0.000001 -0.000001 2.644490 0.776762 -3.583020 6.456720 -0.000001 -0.000000 -2.437030 1.317520 2.317230 12.994200 -0.242716 4.980390 -91.182600 3.234800 -69.906000 5.348090 -0.000007 -0.000001 -62.455400 3.191660 -3.888530 24.328600 0.000019 0.000005 7.585150 15.096000 -27.080900 22.291600 -0.000001 0.000005 14.471100 5.227060 2.031480 12.994500 -0.242716 -4.980390 90.298100 -1.127190 -75.183800 -5.348130 -0.000001 -0.000004 -38.948100 -51.703200 -39.567400 -24.328900 0.000322 -0.000009 -12.989800 -34.293300 -22.263600 -22.291500 -0.000108 -0.000004 22.250400 4.993350 7.458410 -2.192480 -6.469440 -0.000000 -164.989000 -11.300300 -4.817570 39.081100 -0.000007 -0.000012 -0.219745 0.328135 33.809800 40.985400 -0.000006 -0.000013 -3.702620 9.684450 -70.073400 11.754300 -0.000000 0.000003 -0.000208 -0.001910 -16.649500 -2.192510 6.469440 -0.000001 -176.449000 23.674600 178.838000 -39.081100 -0.002282 -0.040193 0.010157 -0.012070 29.590100 -40.985400 0.000008 0.000006 9.635180 10.604800 -72.111800 -11.754300 -0.000006 -0.000006 -0.000820 -0.012822 -17.094700
0.000000 0.000000 0.000000 0.000000 0.000000 -0.000000 -6.487170 90.325800 -1.505720 84.475600 0.165151 7.948980 15.735700 0.000005 -0.000001 73.700300 83.967800 -79.187800 8.984550 -0.406207 -0.000000 3.689190 -3.187220 -10.861600 16.377300 -0.000001 -0.000001 2.678460 0.535822 -2.787310 6.456720 -0.000001 -0.000000 -2.132520 1.321300 2.705260 12.994200 -0.242716 4.980390 -91.202700 3.298570 -69.955400 5.348090 -0.000007 -0.000001 -63.231400 3.491700 -3.460910 24.328600 0.000019 0.000005 6.945010 14.867700 -25.395400 22.291600 -0.000001 0.000005 14.066900 5.209800 2.472720 12.994500 -0.242716 -4.980390 90.332500 -1.199220 -74.503100 -5.348130 -0.000001 -0.000004 -43.176500 -52.248200 -44.747400 -24.328900 0.000322 -0.000009 -12.241900 -33.589700 -21.412600 -22.291500 -0.000108 -0.000004 23.897700 4.923800 8.898990 -2.192480 -6.469440 -0.000000 -165.013000 -11.267300 -4.939520 39.081100 -0.000007 -0.000012 -0.223198 0.330574 34.027000 40.985400 -0.000006 -0.000013 -3.536020 9.784200 -70.160000 11.754300 -0.000000 0.000003 -0.000202 -0.001869 -16.648000 -2.192510 6.469440 -0.000001 -176.393000 23.393300 178.758000 -39.081100 -0.002282 -0.040193 0.008698 -0.009464 29.689100 -40.985400 0.000008 0.000006 9.419680 10.257100 -72.011400 -11.754300 -0.000006 -0.000006 -0.000818 -0.012788 -17.093300
0.000000 0.000000 0.000000 0.000000 0.000000 -0.000000 -6.203570 90.362200 -1.564330 84.588600 -0.090165 8.013390 15.735700 0.000005 -0.000001 73.353200 83.953500 -78.539200 8.984550 -0.406207 -0.000000 3.698010 -3.276360 -10.256200 16.377300 -0.000001 -0.000001 3.220210 -0.036453 -1.906700 6.456720 -0.000001 -0.000000 -1.576470 0.998188 3.276220 12.994200 -0.242716 4.980390 -91.166800 3.183290 -69.857500 5.348090 -0.000007 -0.000001 -64.062100 4.233640 -3.245080 24.328600 0.000019 0.000005 6.950180 16.352900 -23.411800 22.291600 -0.000001 0.000005 13.464400 5.194860 2.848440 12.994500 -0.242716 -4.980390 90.615100 -2.143610 -73.986000 -5.348130 -0.000001 -0.000004 -45.848100 -54.678200 -52.071300 -24.328900 0.000322 -0.000009 -14.422200 -33.691700 -24.870600 -22.291500 -0.000108 -0.000004 23.526900 4.984280 7.639180 -2.192480 -6.469440 -0.000000 -165.303000 -11.479900 -4.811580 39.081100 -0.000007 -0.000012 -0.215360 0.319623 33.972200 40.985400 -0.000006 -0.000013 -3.356730 9.625260 -70.150900 11.754300 -0.000000 0.000003 -0.000225 -0.002043 -16.654400 -2.192510 6.469440 -0.000001 -176.668000 22.969500 178.779000 -39.081100 -0.002282 -0.040193 0.003845 -0.000952 29.683700 -40.985400 0.000008 0.000006 9.161980 10.247700 -71.859300 -11.754300 -0.000006 -0.000006 -0.000928 -0.014377 -17.157800
0.000000 0.000000 0.000000 0.000000 0.000000 -0.000000 -5.914470 90.481400 -1.603340 84.945100 -0.321608 7.910340 15.735700 0.000005 -0.000001 72.956300 83.984100 -77.851400 8.984550 -0.406207 -0.000000 3.618440 -3.345450 -9.675360 16.377300 -0.000001 -0.000001 3.969340 -0.572121 -1.146280 6.456720 -0.000001 -0.000000 -1.224550 0.655747 3.719260 12.994200 -0.242716 4.980390 -91.091200 2.955360 -69.723600 5.348090 -0.000007 -0.000001 -64.853700 4.556450 -2.898760 24.328600 0.000019 0.000005 7.551470 18.845400 -22.313600 22.291600 -0.000001 0.000005 12.527600 5.176060 3.313700 12.994500 -0.242716 -4.980390 91.133200 -3.794110 -73.359100 -5.348130 -0.000001 -0.000004 -43.247700 -57.381000 -56.939300 -24.328900 0.000322 -0.000009 -17.823000 -31.764300 -31.413300 -22.291500 -0.000108 -0.000004 21.799000 5.123660 4.562860 -2.192480 -6.469440 -0.000000 -165.811000 -12.062700 -4.520450 39.081100 -0.000007 -0.000012 -0.211123 0.320599 33.366300 40.985400 -0.000006 -0.000013 -3.101930 9.799460 -69.891900 11.754300 -0.000000 0.000003 -0.000194 -0.001802 -16.645600 -2.192510 6.469440 -0.000001 -177.119000 22.638900 178.766000 -39.081100 -0.002282 -0.040193 0.011246 -0.014101 29.390800 -40.985400 0.000008 0.000006 9.082170 10.268800 -71.616000 -11.754300 -0.000006 -0.000006 -0.000966 -0.014924 -17.180100
0.000000 0.000000 0.000000 0.000000 0.000000 -0.000000 -5.697530 90.661000 -1.636840 85.388500 -0.128729 7.647900 15.735700 0.000005 -0.000001 72.121700 83.989100 -76.732600 8.984550 -0.406207 -0.000000 3.556170 -3.517150 -9.104240 16.377300 -0.000001 -0.000001 4.624370 -1.294610 -0.144319 6.456720 -0.000001 -0.000000 -1.105270 0.451801 3.825310 12.994200 -0.242716 4.980390 -91.047300 2.849180 -69.808000 5.348090 -0.000007 -0.000001 -65.282100 4.475910 -2.352820 24.328600 0.000019 0.000005 7.784900 19.732100 -22.044500 22.291600 -0.000001 0.000005 11.857900 5.158100 3.748870 12.994500 -0.242716 -4.980390 91.905900 -5.900680 -72.065900 -5.348130 -0.000001 -0.000004 -41.840000 -61.676000 -63.611500 -24.328900 0.000322 -0.000009 -20.821400 -27.385700 -39.585900 -22.291500 -0.000108 -0.000004 22.589700 5.259070 1.200900 -2.192480 -6.469440 -0.000000 -166.409000 -12.633700 -4.327370 39.081100 -0.000007 -0.000012 -0.198267 0.312652 32.381100 40.985400 -0.000006 -0.000013 -2.836780 10.302200 -69.371200 11.754300 -0.000000 0.000003 -0.000183 -0.001721 -16.642600 -2.192510 6.469440 -0.000001 -177.551000 22.449000 178.728000 -39.081100 -0.002282 -0.040193 0.017663 -0.026131 28.787600 -40.985400 0.000008 0.000006 8.849450 10.101000 -71.173700 -11.754300 -0.000006 -0.000006 -0.001130 -0.017242 -17.274300
0.000000 0.000000 0.000000 0.000000 0.000000 -0.000000 -5.569800 90.824900 -1.691500 85.787200 0.431630 7.357540 15.735700 0.000005 -0.000001 71.532500 83.939600 -75.852300 8.984550 -0.406207 -0.000000 3.612930 -3.678400 -8.515790 16.377300 -0.000001 -0.000001 5.076220 -2.137530 1.099600 6.456720 -0.000001 -0.000000 -1.148980 0.416585 3.483900 12.994200 -0.242716 4.980390 -91.055700 2.916370 -70.091200 5.348090 -0.000007 -0.000001 -65.296100 4.186320 -1.905830 24.328600 0.000019 0.000005 7.587110 19.080900 -22.168800 22.291600 -0.000001 0.000005 12.003500 5.162890 3.633270 12.994500 -0.242716 -4.980390 92.846800 -7.946070 -70.216800 -5.348130 -0.000001 -0.000004 -43.192900 -67.274000 -72.990800 -24.328900 0.000322 -0.000009 -20.229500 -19.837900 -47.367600 -22.291500 -0.000108 -0.000004 24.488600 5.391240 -2.637290 -2.192480 -6.469440 -0.000000 -166.967000 -12.943800 -4.317790 39.081100 -0.000007 -0.000012 -0.181576 0.296911 31.448100 40.985400 -0.000006 -0.000013 -2.614270 10.919400 -68.809800 11.754300 -0.000000 0.000003 -0.000148 -0.001436 -16.632200 -2.192510 6.469440 -0.000001 -177.884000 22.556300 178.661000 -39.081100 -0.002282 -0.040193 0.017546 -0.026584 28.176800 -40.985400 0.000008 0.000006 8.758730 9.765150 -70.804400 -11.754300 -0.000006 -0.000006 -0.001192 -0.018105 -17.309400
